<svg xmlns="http://www.w3.org/2000/svg" viewBox="0 0 64 64">
  <!-- Fondo circular azul oscuro -->
  <circle cx="32" cy="32" r="32" fill="#0a1628"/>

  <!-- Pelota de fútbol -->
  <!-- Círculo base blanco -->
  <circle cx="32" cy="32" r="18" fill="#f0f0f0" stroke="#ccc" stroke-width="0.5"/>

  <!-- Pentagono central negro -->
  <polygon points="32,20 38.5,24.5 36,32 28,32 25.5,24.5" fill="#1a1a1a"/>

  <!-- Hexágonos alrededor -->
  <!-- Arriba izquierda -->
  <polygon points="22,18 27,16 28,22 23,25 19,22" fill="#1a1a1a"/>
  <!-- Arriba derecha -->
  <polygon points="42,18 45,22 41,25 36,22 37,16" fill="#1a1a1a"/>
  <!-- Derecha -->
  <polygon points="46,28 50,32 47,37 42,36 41,30" fill="#1a1a1a"/>
  <!-- Abajo derecha -->
  <polygon points="43,42 38,44 36,40 40,36 45,37" fill="#1a1a1a"/>
  <!-- Abajo izquierda -->
  <polygon points="21,42 19,37 24,36 28,40 26,44" fill="#1a1a1a"/>
  <!-- Izquierda -->
  <polygon points="18,28 23,30 22,36 17,37 14,32" fill="#1a1a1a"/>

  <!-- Brillo -->
  <circle cx="26" cy="24" r="5" fill="white" opacity="0.12"/>

  <!-- Detalle rojo (acento del proyecto) -->
  <circle cx="32" cy="32" r="18" fill="none" stroke="#c0392b" stroke-width="1.5" opacity="0.6"/>
</svg>
